Coordinates
version=1
nRows=21
nColumns=22
inDegrees=yes

Units are S.I. units (second, meters, Newtons, ...)
If the header above contains a line with 'inDegrees', this indicates whether rotational values are in degrees (yes) or radians (no).

endheader
time	pelvis_tilt	pelvis_list	pelvis_rotation	pelvis_tx	pelvis_ty	pelvis_tz	hip_flexion_r	hip_adduction_r	hip_rotation_r	knee_angle_r	ankle_angle_r	subtalar_angle_r	hip_flexion_l	hip_adduction_l	hip_rotation_l	knee_angle_l	ankle_angle_l	subtalar_angle_l	lumbar_extension	lumbar_bending	lumbar_rotation
      0.01000000	     -3.36196807	     -2.66393840	     -2.52726145	     -1.20883969	      0.95581337	      0.40721014	     10.74625294	      2.98679280	     -3.79796126	    -19.84750146	     12.41054802	     -1.12869780	     10.24248378	     -2.14705475	     -7.37307941	    -21.67784069	     12.71396706	     -7.24329367	     -4.59172659	      1.10631949	     -1.19457066
      0.02000000	     -3.36562336	     -2.66403674	     -2.49302024	     -1.20880601	      0.95580143	      0.40713875	     10.75077004	      2.98442294	     -3.79239541	    -19.85308096	     12.41205820	     -1.12920171	     10.24411043	     -2.14644915	     -7.37874623	    -21.67024501	     12.71400098	     -7.24765884	     -4.60220403	      1.10786604	     -1.18141021
      0.03000000	     -3.35253266	     -2.63337785	     -2.46090125	     -1.20877527	      0.95578718	      0.40704057	     10.77584102	      2.93882491	     -3.83354908	    -19.92729759	     12.46461947	     -1.14712353	     10.21793169	     -2.10302214	     -7.36146208	    -21.64284599	     12.70295934	     -7.34795011	     -4.63413218	      1.07229693	     -1.14500070
      0.04000000	     -3.34553420	     -2.63236006	     -2.42055433	     -1.20875405	      0.95577433	      0.40696906	     10.79010079	      2.93467397	     -3.83609765	    -19.97066713	     12.46974209	     -1.15121891	     10.21563167	     -2.09706077	     -7.33890532	    -21.64714364	     12.69431742	     -7.36200171	     -4.66471315	      1.06584611	     -1.11806617
      0.05000000	     -3.33874926	     -2.60667979	     -2.36736006	     -1.20871586	      0.95575118	      0.40682700	     10.81557581	      2.89071324	     -3.89114205	    -20.03466106	     12.51136515	     -1.16688109	     10.20482746	     -2.05265566	     -7.28934926	    -21.62981746	     12.68859260	     -7.40711757	     -4.69302953	      1.04017628	     -1.11225779
      0.06000000	     -3.32910731	     -2.60560512	     -2.32644788	     -1.20869732	      0.95573549	      0.40675329	     10.83397637	      2.88603133	     -3.89381441	    -20.09044771	     12.51923598	     -1.17114153	     10.20510557	     -2.04510196	     -7.25933631	    -21.64219021	     12.68446125	     -7.41567547	     -4.73034086	      1.03347653	     -1.09326617
      0.07000000	     -3.32728242	     -2.58133706	     -2.26916540	     -1.20867150	      0.95570153	      0.40660775	     10.86727362	      2.84355151	     -3.95217960	    -20.15799835	     12.56371233	     -1.18466006	     10.20747053	     -2.00016349	     -7.19514343	    -21.63665272	     12.68628400	     -7.44182555	     -4.75824073	      1.00892969	     -1.09973505
      0.08000000	     -3.31934175	     -2.57986063	     -2.22854176	     -1.20865407	      0.95568698	      0.40652887	     10.88707862	      2.83890196	     -3.94810033	    -20.21360900	     12.56850093	     -1.18752367	     10.21139509	     -1.99212216	     -7.16831470	    -21.65138424	     12.68232646	     -7.44577452	     -4.79567905	      1.00323060	     -1.08956767
      0.09000000	     -3.32360183	     -2.55260751	     -2.17486505	     -1.20864661	      0.95564846	      0.40637966	     10.92835619	      2.79353292	     -3.99519672	    -20.28250718	     12.60987294	     -1.19701558	     10.22257725	     -1.94474761	     -7.10785355	    -21.64769001	     12.68009382	     -7.46000998	     -4.82280149	      0.97769892	     -1.09971497
      0.10000000	     -3.32029651	     -2.54861637	     -2.13718917	     -1.20863475	      0.95563481	      0.40628959	     10.95070777	      2.78551656	     -3.98807849	    -20.33331680	     12.61475754	     -1.19878830	     10.22801048	     -1.93370685	     -7.08735000	    -21.65510412	     12.67428028	     -7.46246220	     -4.85970284	      0.97416517	     -1.09784699
      0.11000000	     -3.31996594	     -2.53534130	     -2.09768301	     -1.20861270	      0.95561618	      0.40618319	     10.97682411	      2.76377491	     -3.99498632	    -20.38776797	     12.63023952	     -1.20156682	     10.23283084	     -1.90947674	     -7.05793767	    -21.65527283	     12.66938249	     -7.46620488	     -4.89317495	      0.96322834	     -1.09610784
      0.12000000	     -3.32693688	     -2.51378359	     -2.06067247	     -1.20857963	      0.95559274	      0.40606394	     11.00623459	      2.72992633	     -4.01922573	    -20.43296706	     12.65725133	     -1.20447419	     10.23866153	     -1.87320958	     -7.02314123	    -21.64355678	     12.65882982	     -7.47125622	     -4.91890862	      0.94821054	     -1.10441429
      0.13000000	     -3.33676457	     -2.51208334	     -2.03496102	     -1.20849262	      0.95558108	      0.40598290	     11.01132756	      2.72461810	     -4.01658833	    -20.43477692	     12.65874003	     -1.20458355	     10.24351688	     -1.86762943	     -7.02677530	    -21.63460570	     12.65855897	     -7.47157938	     -4.93408855	      0.95587195	     -1.09795915
      0.14000000	     -3.34271604	     -2.50226047	     -2.00061781	     -1.20841556	      0.95556735	      0.40589075	     11.03673577	      2.70305343	     -4.05231271	    -20.48253390	     12.67829479	     -1.20532693	     10.24247305	     -1.84665278	     -6.99193702	    -21.62015148	     12.64330750	     -7.47398189	     -4.95651078	      0.95425440	     -1.10807340
      0.15000000	     -3.35437810	     -2.49979497	     -1.98521820	     -1.20830527	      0.95555851	      0.40583525	     11.04023312	      2.69755127	     -4.05355268	    -20.47988194	     12.67959217	     -1.20515689	     10.24674162	     -1.84111801	     -6.99486171	    -21.61241662	     12.64321013	     -7.47431133	     -4.96929044	      0.96421651	     -1.10452370
      0.16000000	     -3.37520406	     -2.49602408	     -1.94731716	     -1.20816016	      0.95553325	      0.40573328	     11.05905110	      2.67653366	     -4.13462127	    -20.49201129	     12.69267420	     -1.19480472	     10.25719811	     -1.82573950	     -6.95745271	    -21.59721784	     12.62819187	     -7.48153864	     -4.96335651	      0.97748961	     -1.13198884
      0.17000000	     -3.38693689	     -2.49529572	     -1.94028610	     -1.20803322	      0.95552462	      0.40571020	     11.06307694	      2.67466726	     -4.13490187	    -20.49144929	     12.69324859	     -1.19420633	     10.25903800	     -1.82386969	     -6.96015184	    -21.58924789	     12.62836900	     -7.48170747	     -4.97448511	      0.98776971	     -1.13140426
      0.18000000	     -3.40389763	     -2.50367743	     -1.93957913	     -1.20786229	      0.95550911	      0.40568932	     11.07569570	      2.68012273	     -4.15009780	    -20.50167844	     12.69490867	     -1.18935695	     10.25222240	     -1.83139167	     -6.96449801	    -21.56260871	     12.62692121	     -7.48190318	     -4.96943252	      1.01321877	     -1.13977942
      0.19000000	     -3.41428525	     -2.50196296	     -1.94292597	     -1.20771493	      0.95549757	      0.40567398	     11.07816225	      2.67676363	     -4.15176972	    -20.50131282	     12.69508106	     -1.18829013	     10.25239597	     -1.82810913	     -6.96527598	    -21.56069871	     12.62687663	     -7.48183104	     -4.97646385	      1.02621622	     -1.14053200
      0.20000000	     -3.42895913	     -2.50824358	     -1.95460483	     -1.20754757	      0.95547771	      0.40567548	     11.09203258	      2.68201593	     -4.15703222	    -20.51625296	     12.69631009	     -1.18023882	     10.24889470	     -1.83493659	     -6.96756952	    -21.54858656	     12.62663201	     -7.48075315	     -4.97238608	      1.04945002	     -1.14787206
      0.21000000	     -3.43773099	     -2.50566365	     -1.96511549	     -1.20738996	      0.95546431	      0.40566656	     11.09317850	      2.67800651	     -4.15633475	    -20.51702335	     12.69672475	     -1.17884674	     10.24821358	     -1.83077961	     -6.96710148	    -21.55187931	     12.62657506	     -7.48038687	     -4.97691665	      1.06238500	     -1.14981039
